<svg version="1.0" xmlns="http://www.w3.org/2000/svg" width="682.667" height="682.667" viewBox="0 0 512 512"><path d="M240.2 126c-24.1 6.3-43 25.4-49.2 49.6-5.4 21.2 1.2 45.1 16.9 61.4l6.6 6.8-7.4 2.6-7.5 2.5-5.8-5.5c-3.6-3.3-9.3-7.1-14.7-9.7l-8.8-4.3 3.8-4.4c17.7-20.5 17-49.5-1.5-69.5-12.6-13.6-33-19.7-50.5-15-18 4.7-34 21-38 38.5-1.3 5.8-1.3 18.2 0 24 1.5 6.7 6.4 16 11.4 21.7l4.4 5-5.7 2.3c-18.3 7.5-32.7 24.5-36.7 43.7-1.8 8.3-2.1 40.4-.4 43.5 3 5.6 43.3 19.8 56.3 19.8 4.4 0 7.6-3.5 7.6-8.2 0-5-2.2-6.5-13.1-8.7-11.8-2.5-21.5-5.5-29.8-9.2l-6.3-2.9.4-15.7c.4-13.3.8-16.7 2.7-21.5 4.9-12.5 14.9-22.3 27.6-27 5.4-2 8.4-2.2 28.3-2.6 14.3-.2 24.7 0 29 .8 7.6 1.3 17.1 5.7 22 10.1l3.3 3-7.4 7.3C164 278 156 294.4 154 313.6c-.6 5.4-1 18.1-.8 28.1.4 21.5-.6 19.7 14.3 26.5 56.9 26.2 120.1 26.3 176.5.3 15.5-7.2 14.4-5.3 14.8-26.8.2-10-.2-22.7-.8-28.1-2-19.2-10-35.6-23.8-49.3l-7.5-7.4 3.4-2.9c5.2-4.5 14.7-8.7 22.1-10 4.3-.8 14.7-1 29-.8 19.9.4 22.9.6 28.3 2.6 12.7 4.7 22.7 14.5 27.6 27 1.9 4.8 2.3 8.2 2.7 21.4l.4 15.7-3.8 1.9c-6.8 3.5-20.6 7.9-31.3 10.1-11.9 2.4-14.1 3.8-14.1 9.1 0 4.7 3.3 8 8.1 8 4.7-.1 18.9-3.3 28.5-6.5 11.4-3.8 26-11 27.3-13.3 1.7-3.1 1.4-35.2-.4-43.6-4-18.9-18.5-36.2-36.7-43.6l-5.7-2.3 4.4-5c8.2-9.4 12.5-20.9 12.5-33.7-.1-15-4.5-25.6-15.4-36.4-10.9-10.9-22-15.6-37.1-15.6-27.8.1-51.5 24-51.5 52 0 12.1 4.7 24.5 12.9 34l3.8 4.4-8.8 4.3c-5.4 2.6-11.1 6.4-14.7 9.7l-5.8 5.5-7.7-2.6-7.7-2.7 3.5-2.8c8.9-7.4 18.3-23.6 21-36.3 6.2-29.3-8.9-59.9-36.3-73.5-13.9-6.9-30.6-8.7-45-5zm26 15.1c18.9 3.9 35.8 20.8 39.7 39.7 3.5 16.9-1.5 33-14.3 45.8-20.7 20.7-50.5 20.7-71.2 0-20.7-20.7-20.7-50.6 0-71.2 12.9-12.8 28.9-17.8 45.8-14.3zm-116.9 16.7c6.5 2.9 15.1 11.3 18.4 18.1 2.5 4.9 2.8 6.8 2.8 15.1 0 8.5-.3 10.1-2.9 15.3-3.5 6.8-11.8 15-18.3 18-3.9 1.8-6.6 2.2-14.3 2.2-8.4 0-10.2-.3-15.2-2.8-21.1-10.3-27.4-36.5-13.3-55 3.6-4.7 10.6-9.7 17.1-12.2 5.7-2.2 19.5-1.5 25.7 1.3zm242.9.5c7.6 3.7 14.3 10.4 17.6 17.5 2.3 4.9 2.7 7 2.7 15.2 0 8.4-.3 10.2-2.8 15.2-3.6 7.4-10.1 13.9-17.5 17.5-5 2.5-6.8 2.8-15.2 2.8-7.7 0-10.4-.4-14.3-2.2-6.6-3.1-15.2-11.5-18.4-18.2-2.5-4.9-2.8-6.7-2.8-15.1.1-11.4 2-16.4 9.1-24 8.6-9.2 15.5-12.1 27.9-11.7 6.4.2 9.1.7 13.7 3zm-99.7 101.2c22.8 4.8 42.3 23.4 48 46 2.2 8.8 3.3 44.6 1.4 46.1-2.9 2.3-21.9 9.7-32.9 12.9-18.8 5.4-30.8 7-53 7s-34.2-1.6-53-7c-11-3.2-30-10.6-32.9-12.9-1.9-1.5-.8-37.3 1.4-46.1 5.7-22.3 25.1-41.1 47.5-45.9 9.5-2.1 63.8-2.1 73.5-.1z"/></svg>